<svg width="16" height="16" viewBox="0 0 16 16" fill="none" xmlns="http://www.w3.org/2000/svg">
<path fill-rule="evenodd" clip-rule="evenodd" d="M4.61858 12.4274H11.3808C11.7234 12.4274 12.0601 12.3372 12.3568 12.1658C13.2905 11.6268 13.6104 10.4329 13.0713 9.49925L9.69022 3.64302C9.51889 3.34627 9.27247 3.09984 8.97571 2.92851C8.04205 2.38946 6.84818 2.70936 6.30913 3.64302L2.92803 9.49925C2.7567 9.796 2.6665 10.1326 2.6665 10.4753C2.6665 11.5534 3.54048 12.4274 4.61858 12.4274ZM8.65304 7.68837C8.65304 8.05179 8.35843 8.3464 7.99501 8.3464C7.63159 8.3464 7.33698 8.05179 7.33698 7.68837V6.37231C7.33698 6.00889 7.63159 5.71428 7.99501 5.71428C8.35843 5.71428 8.65304 6.00889 8.65304 6.37231V7.68837ZM7.99501 10.3205C7.63178 10.3205 7.33698 10.0257 7.33698 9.66246C7.33698 9.29922 7.63178 9.00443 7.99501 9.00443C8.35824 9.00443 8.65304 9.29922 8.65304 9.66246C8.65304 10.0257 8.35824 10.3205 7.99501 10.3205Z" fill="#FF3535"/>
</svg>
