<svg width="18" height="17" viewBox="0 0 18 17" fill="none" xmlns="http://www.w3.org/2000/svg">
<path d="M15.6559 6.82806L13.9489 7.93903M8.82788 11.272V14M8.82788 11.272L10.5349 10.161M8.82788 11.272L7.12087 10.161M1.99983 6.82806L3.70684 7.93903M5.41385 9.05001L3.99988 11.5M5.41385 9.05001L3.70684 7.93903M5.41385 9.05001L7.12087 10.161M12.2419 9.05001L13.4999 11.5M12.2419 9.05001L13.9489 7.93903M12.2419 9.05001L10.5349 10.161M3.70684 7.93903L1.64587 10M13.9489 7.93903L16.0099 10M10.5349 10.161L11.4999 13M7.12087 10.161L6.49988 13" stroke="white"/>
</svg>
