<svg width="186" height="32" viewBox="0 0 186 32" fill="none" xmlns="http://www.w3.org/2000/svg">
<path d="M32 21.0934V0H11.1137L0 10.6667H21.3333V32L32 21.0934Z" fill="#6E3AFF"/>
<path d="M44.4878 25.3849V6.28711H52.1542C54.1367 6.28711 55.6464 6.75091 56.6831 7.67852C57.738 8.58794 58.2655 9.7611 58.2655 11.198C58.2655 12.3984 57.9381 13.3624 57.2833 14.0899C56.6467 14.7993 55.8646 15.2813 54.937 15.5359C56.0283 15.7542 56.9287 16.2998 57.638 17.1729C58.3474 18.0277 58.702 19.0281 58.702 20.174C58.702 21.6836 58.1564 22.9295 57.0651 23.9117C55.9738 24.8939 54.4278 25.3849 52.427 25.3849H44.4878ZM47.98 14.3082H51.6358C52.618 14.3082 53.3728 14.0808 53.9003 13.6261C54.4278 13.1714 54.6915 12.5257 54.6915 11.6891C54.6915 10.8888 54.4278 10.2613 53.9003 9.80657C53.391 9.33367 52.618 9.09722 51.5813 9.09722H47.98V14.3082ZM47.98 22.5475H51.8814C52.9181 22.5475 53.7184 22.3111 54.2823 21.8382C54.8643 21.3471 55.1553 20.665 55.1553 19.792C55.1553 18.9008 54.8552 18.2005 54.255 17.6912C53.6548 17.182 52.8454 16.9273 51.8268 16.9273H47.98V22.5475Z" fill="white"/>
<path d="M68.1107 25.7123C66.8011 25.7123 65.6189 25.4122 64.564 24.812C63.5272 24.2118 62.6996 23.3842 62.0812 22.3293C61.481 21.2562 61.1809 20.0194 61.1809 18.6189C61.1809 17.2183 61.4901 15.9906 62.1085 14.9357C62.7269 13.8626 63.5545 13.0259 64.5912 12.4257C65.6462 11.8255 66.8284 11.5254 68.138 11.5254C69.4294 11.5254 70.5934 11.8255 71.6302 12.4257C72.6851 13.0259 73.5127 13.8626 74.1129 14.9357C74.7313 15.9906 75.0405 17.2183 75.0405 18.6189C75.0405 20.0194 74.7313 21.2562 74.1129 22.3293C73.5127 23.3842 72.6851 24.2118 71.6302 24.812C70.5752 25.4122 69.4021 25.7123 68.1107 25.7123ZM68.1107 22.684C69.0201 22.684 69.8113 22.3475 70.4843 21.6745C71.1573 20.9833 71.4937 19.9648 71.4937 18.6189C71.4937 17.2729 71.1573 16.2635 70.4843 15.5905C69.8113 14.8993 69.0292 14.5537 68.138 14.5537C67.2104 14.5537 66.4101 14.8993 65.7371 15.5905C65.0823 16.2635 64.7549 17.2729 64.7549 18.6189C64.7549 19.9648 65.0823 20.9833 65.7371 21.6745C66.4101 22.3475 67.2013 22.684 68.1107 22.684Z" fill="white"/>
<path d="M78.1629 25.3849V11.8528H81.2731L81.6005 14.39C82.0915 13.517 82.7554 12.8258 83.5921 12.3166C84.4469 11.7891 85.4473 11.5254 86.5932 11.5254V15.2085H85.611C84.8471 15.2085 84.165 15.3267 83.5648 15.5632C82.9646 15.7996 82.4917 16.2089 82.1461 16.7909C81.8187 17.3729 81.655 18.1823 81.655 19.2191V25.3849H78.1629Z" fill="white"/>
<path d="M94.5729 25.7123C93.3725 25.7123 92.3176 25.5214 91.4081 25.1394C90.4987 24.7393 89.7712 24.1936 89.2255 23.5024C88.6799 22.8113 88.3525 22.011 88.2433 21.1016H91.7628C91.8719 21.629 92.1629 22.0837 92.6358 22.4657C93.1269 22.8295 93.7544 23.0114 94.5183 23.0114C95.2823 23.0114 95.837 22.8568 96.1826 22.5475C96.5464 22.2383 96.7282 21.8837 96.7282 21.4835C96.7282 20.9015 96.4736 20.5104 95.9643 20.3104C95.455 20.0921 94.7457 19.8829 93.8363 19.6829C93.2543 19.5556 92.6631 19.401 92.0629 19.2191C91.4627 19.0372 90.908 18.8098 90.3987 18.537C89.9076 18.246 89.5074 17.8822 89.1982 17.4457C88.889 16.991 88.7344 16.4362 88.7344 15.7815C88.7344 14.581 89.2073 13.5716 90.1531 12.7531C91.1171 11.9346 92.4631 11.5254 94.191 11.5254C95.7915 11.5254 97.0647 11.8982 98.0105 12.644C98.9745 13.3897 99.5474 14.4173 99.7293 15.7269H96.4281C96.2281 14.7265 95.4732 14.2264 94.1637 14.2264C93.5089 14.2264 92.9996 14.3537 92.6358 14.6083C92.2903 14.8629 92.1175 15.1812 92.1175 15.5632C92.1175 15.9633 92.3812 16.2816 92.9087 16.5181C93.4361 16.7545 94.1364 16.9728 95.0094 17.1729C95.9552 17.3911 96.8192 17.6367 97.6013 17.9095C98.4016 18.1641 99.0382 18.5552 99.5111 19.0827C99.984 19.5919 100.22 20.3286 100.22 21.2925C100.239 22.1292 100.02 22.884 99.5656 23.557C99.1109 24.23 98.4561 24.7574 97.6013 25.1394C96.7464 25.5214 95.737 25.7123 94.5729 25.7123Z" fill="white"/>
<path d="M107.979 25.7123C106.815 25.7123 105.86 25.5304 105.115 25.1667C104.369 24.7847 103.814 24.2845 103.45 23.6661C103.087 23.0477 102.905 22.3657 102.905 21.6199C102.905 20.3649 103.396 19.3464 104.378 18.5643C105.36 17.7822 106.833 17.3911 108.798 17.3911H112.235V17.0637C112.235 16.1361 111.972 15.4541 111.444 15.0175C110.917 14.581 110.262 14.3628 109.48 14.3628C108.771 14.3628 108.152 14.5356 107.625 14.8811C107.097 15.2085 106.77 15.6996 106.642 16.3544H103.232C103.323 15.3722 103.65 14.5174 104.214 13.7898C104.796 13.0623 105.542 12.5075 106.452 12.1256C107.361 11.7254 108.379 11.5254 109.507 11.5254C111.435 11.5254 112.954 12.0074 114.063 12.9714C115.173 13.9353 115.728 15.2995 115.728 17.0637V25.3849H112.754L112.426 23.2023C112.026 23.9299 111.462 24.5301 110.735 25.003C110.026 25.4759 109.107 25.7123 107.979 25.7123ZM108.771 22.9841C109.771 22.9841 110.544 22.6567 111.09 22.0019C111.653 21.3471 112.008 20.5377 112.154 19.5737H109.18C108.252 19.5737 107.588 19.7465 107.188 20.0921C106.788 20.4195 106.588 20.8287 106.588 21.3198C106.588 21.8473 106.788 22.2565 107.188 22.5475C107.588 22.8386 108.116 22.9841 108.771 22.9841Z" fill="white"/>
<path d="M125.643 25.3849V6.28711H129.135V14.2264H137.702V6.28711H141.194V25.3849H137.702V17.0637H129.135V25.3849H125.643Z" fill="white"/>
<path d="M151.399 25.7123C150.035 25.7123 148.826 25.4213 147.771 24.8393C146.716 24.2573 145.888 23.4388 145.288 22.3839C144.688 21.3289 144.388 20.1103 144.388 18.728C144.388 17.3275 144.679 16.0816 145.261 14.9903C145.861 13.899 146.679 13.0532 147.716 12.453C148.771 11.8346 150.008 11.5254 151.426 11.5254C152.754 11.5254 153.927 11.8164 154.946 12.3984C155.964 12.9804 156.756 13.7807 157.32 14.7993C157.902 15.7996 158.193 16.9182 158.193 18.155C158.193 18.3551 158.183 18.5643 158.165 18.7825C158.165 19.0008 158.156 19.2282 158.138 19.4646H147.852C147.925 20.5195 148.289 21.3471 148.944 21.9473C149.617 22.5475 150.426 22.8477 151.372 22.8477C152.081 22.8477 152.672 22.6931 153.145 22.3839C153.636 22.0565 154 21.6381 154.237 21.1289H157.783C157.529 21.9837 157.101 22.7658 156.501 23.4752C155.919 24.1663 155.191 24.712 154.318 25.1121C153.464 25.5123 152.49 25.7123 151.399 25.7123ZM151.426 14.3628C150.572 14.3628 149.817 14.6083 149.162 15.0994C148.507 15.5723 148.089 16.2998 147.907 17.282H154.646C154.591 16.3908 154.264 15.6814 153.664 15.154C153.063 14.6265 152.318 14.3628 151.426 14.3628Z" fill="white"/>
<path d="M161.13 25.3849V11.8528H164.24L164.567 14.39C165.058 13.517 165.722 12.8258 166.559 12.3166C167.414 11.7891 168.414 11.5254 169.56 11.5254V15.2085H168.578C167.814 15.2085 167.132 15.3267 166.532 15.5632C165.931 15.7996 165.459 16.2089 165.113 16.7909C164.786 17.3729 164.622 18.1823 164.622 19.2191V25.3849H161.13Z" fill="white"/>
<path d="M178.2 25.7123C176.891 25.7123 175.708 25.4122 174.654 24.812C173.617 24.2118 172.789 23.3842 172.171 22.3293C171.571 21.2562 171.271 20.0194 171.271 18.6189C171.271 17.2183 171.58 15.9906 172.198 14.9357C172.817 13.8626 173.644 13.0259 174.681 12.4257C175.736 11.8255 176.918 11.5254 178.228 11.5254C179.519 11.5254 180.683 11.8255 181.72 12.4257C182.775 13.0259 183.602 13.8626 184.202 14.9357C184.821 15.9906 185.13 17.2183 185.13 18.6189C185.13 20.0194 184.821 21.2562 184.202 22.3293C183.602 23.3842 182.775 24.2118 181.72 24.812C180.665 25.4122 179.492 25.7123 178.2 25.7123ZM178.2 22.684C179.11 22.684 179.901 22.3475 180.574 21.6745C181.247 20.9833 181.583 19.9648 181.583 18.6189C181.583 17.2729 181.247 16.2635 180.574 15.5905C179.901 14.8993 179.119 14.5537 178.228 14.5537C177.3 14.5537 176.5 14.8993 175.827 15.5905C175.172 16.2635 174.845 17.2729 174.845 18.6189C174.845 19.9648 175.172 20.9833 175.827 21.6745C176.5 22.3475 177.291 22.684 178.2 22.684Z" fill="white"/>
</svg>
