<svg width="81" height="22" viewBox="0 0 81 22" fill="none" xmlns="http://www.w3.org/2000/svg">
<rect width="81" height="22" rx="11" fill="#85FF3A" fill-opacity="0.1"/>
<path d="M16.56 16L12.352 4.8H13.808L17.344 14.576L20.912 4.8H22.336L18.128 16H16.56ZM26.3126 16.192C25.5553 16.192 24.8833 16.0213 24.2966 15.68C23.71 15.328 23.246 14.8427 22.9046 14.224C22.574 13.6053 22.4086 12.8747 22.4086 12.032C22.4086 11.2 22.574 10.4747 22.9046 9.856C23.2353 9.22667 23.694 8.74133 24.2806 8.4C24.878 8.048 25.566 7.872 26.3446 7.872C27.1126 7.872 27.774 8.048 28.3286 8.4C28.894 8.74133 29.326 9.19467 29.6246 9.76C29.9233 10.3253 30.0726 10.9333 30.0726 11.584C30.0726 11.7013 30.0673 11.8187 30.0566 11.936C30.0566 12.0533 30.0566 12.1867 30.0566 12.336H23.7366C23.7686 12.944 23.9073 13.4507 24.1526 13.856C24.4086 14.2507 24.7233 14.5493 25.0966 14.752C25.4806 14.9547 25.886 15.056 26.3126 15.056C26.8673 15.056 27.3313 14.928 27.7046 14.672C28.078 14.416 28.35 14.0693 28.5206 13.632H29.8486C29.6353 14.368 29.2246 14.9813 28.6166 15.472C28.0193 15.952 27.2513 16.192 26.3126 16.192ZM26.3126 9.008C25.6726 9.008 25.102 9.20533 24.6006 9.6C24.11 9.984 23.8273 10.5493 23.7526 11.296H28.7446C28.7126 10.5813 28.4673 10.0213 28.0086 9.616C27.55 9.21067 26.9846 9.008 26.3126 9.008ZM31.854 16V8.064H33.07L33.182 9.584C33.4273 9.06133 33.8007 8.64533 34.302 8.336C34.8033 8.02667 35.422 7.872 36.158 7.872V9.28H35.79C35.3207 9.28 34.8887 9.36533 34.494 9.536C34.0993 9.696 33.7847 9.97333 33.55 10.368C33.3153 10.7627 33.198 11.3067 33.198 12V16H31.854ZM38.4825 6.304C38.2158 6.304 37.9918 6.21867 37.8105 6.048C37.6398 5.86667 37.5545 5.64267 37.5545 5.376C37.5545 5.12 37.6398 4.90667 37.8105 4.736C37.9918 4.56533 38.2158 4.48 38.4825 4.48C38.7385 4.48 38.9572 4.56533 39.1385 4.736C39.3198 4.90667 39.4105 5.12 39.4105 5.376C39.4105 5.64267 39.3198 5.86667 39.1385 6.048C38.9572 6.21867 38.7385 6.304 38.4825 6.304ZM37.8105 16V8.064H39.1545V16H37.8105ZM41.9266 16V9.2H40.7266V8.064H41.9266V6.688C41.9266 5.92 42.1186 5.36 42.5026 5.008C42.8866 4.656 43.4466 4.48 44.1826 4.48H44.9826V5.632H44.3906C43.9853 5.632 43.6973 5.71733 43.5266 5.888C43.356 6.048 43.2706 6.32533 43.2706 6.72V8.064H48.1986V16H46.8546V9.2H43.2706V16H41.9266ZM47.5426 6.544C47.2866 6.544 47.068 6.45867 46.8866 6.288C46.7053 6.10667 46.6146 5.88267 46.6146 5.616C46.6146 5.36 46.7053 5.14667 46.8866 4.976C47.068 4.80533 47.2866 4.72 47.5426 4.72C47.8093 4.72 48.028 4.80533 48.1986 4.976C48.38 5.14667 48.4706 5.36 48.4706 5.616C48.4706 5.88267 48.38 6.10667 48.1986 6.288C48.028 6.45867 47.8093 6.544 47.5426 6.544ZM54.1408 16.192C53.3834 16.192 52.7114 16.0213 52.1248 15.68C51.5381 15.328 51.0741 14.8427 50.7328 14.224C50.4021 13.6053 50.2368 12.8747 50.2368 12.032C50.2368 11.2 50.4021 10.4747 50.7328 9.856C51.0634 9.22667 51.5221 8.74133 52.1088 8.4C52.7061 8.048 53.3941 7.872 54.1727 7.872C54.9408 7.872 55.6021 8.048 56.1568 8.4C56.7221 8.74133 57.1541 9.19467 57.4528 9.76C57.7514 10.3253 57.9008 10.9333 57.9008 11.584C57.9008 11.7013 57.8954 11.8187 57.8848 11.936C57.8848 12.0533 57.8848 12.1867 57.8848 12.336H51.5648C51.5968 12.944 51.7354 13.4507 51.9808 13.856C52.2368 14.2507 52.5514 14.5493 52.9248 14.752C53.3088 14.9547 53.7141 15.056 54.1408 15.056C54.6954 15.056 55.1594 14.928 55.5328 14.672C55.9061 14.416 56.1781 14.0693 56.3488 13.632H57.6768C57.4634 14.368 57.0528 14.9813 56.4448 15.472C55.8474 15.952 55.0794 16.192 54.1408 16.192ZM54.1408 9.008C53.5008 9.008 52.9301 9.20533 52.4288 9.6C51.9381 9.984 51.6554 10.5493 51.5807 11.296H56.5728C56.5408 10.5813 56.2954 10.0213 55.8368 9.616C55.3781 9.21067 54.8128 9.008 54.1408 9.008ZM63.2821 16.192C62.4928 16.192 61.7995 16.0107 61.2021 15.648C60.6155 15.2853 60.1568 14.7893 59.8261 14.16C59.5061 13.5307 59.3461 12.816 59.3461 12.016C59.3461 11.216 59.5115 10.5067 59.8421 9.888C60.1728 9.25867 60.6315 8.768 61.2181 8.416C61.8048 8.05333 62.4981 7.872 63.2981 7.872C63.9488 7.872 64.5248 8.00533 65.0261 8.272C65.5275 8.53867 65.9168 8.912 66.1941 9.392V4.48H67.5381V16H66.3221L66.1941 14.688C65.9381 15.072 65.5701 15.4187 65.0901 15.728C64.6101 16.0373 64.0075 16.192 63.2821 16.192ZM63.4261 15.024C63.9595 15.024 64.4288 14.9013 64.8341 14.656C65.2501 14.4 65.5701 14.048 65.7941 13.6C66.0288 13.152 66.1461 12.6293 66.1461 12.032C66.1461 11.4347 66.0288 10.912 65.7941 10.464C65.5701 10.016 65.2501 9.66933 64.8341 9.424C64.4288 9.168 63.9595 9.04 63.4261 9.04C62.9035 9.04 62.4341 9.168 62.0181 9.424C61.6128 9.66933 61.2928 10.016 61.0581 10.464C60.8341 10.912 60.7221 11.4347 60.7221 12.032C60.7221 12.6293 60.8341 13.152 61.0581 13.6C61.2928 14.048 61.6128 14.4 62.0181 14.656C62.4341 14.9013 62.9035 15.024 63.4261 15.024Z" fill="#85FF3A"/>
</svg>
